REM DIRINDEX 1\2,1\4,1\5,1\6,1\7,1\3\8,1\3\9,1\3\10
REM DIRNAME cjc113,folder01,folder02,folder03,folder04,folder05,folder06,folder07,folder08,folder09
TITLE ""
FILE "DB4500_5th_4B_25.mp3" MP3
  TRACK 01 AUDIO
    TITLE "8:cjc113_2701"
    INDEX 01 00:00:00
  TRACK 02 AUDIO
    TITLE "0:"
    INDEX 01 00:01:05
  TRACK 03 AUDIO
    TITLE "9:cjc113_2702"
    INDEX 01 00:01:28
  TRACK 04 AUDIO
    TITLE "0:"
    INDEX 01 00:02:71
  TRACK 05 AUDIO
    TITLE "10:cjc113_2703"
    INDEX 01 00:03:15
  TRACK 06 AUDIO
    TITLE "0:"
    INDEX 01 00:06:02
  TRACK 07 AUDIO
    TITLE "8:cjc113_2704"
    INDEX 01 00:06:49
  TRACK 08 AUDIO
    TITLE "0:"
    INDEX 01 00:07:54
  TRACK 09 AUDIO
    TITLE "9:cjc113_2705"
    INDEX 01 00:08:01
  TRACK 10 AUDIO
    TITLE "0:"
    INDEX 01 00:09:14
  TRACK 11 AUDIO
    TITLE "10:cjc113_2706"
    INDEX 01 00:09:38
  TRACK 12 AUDIO
    TITLE "0:"
    INDEX 01 00:11:74
  TRACK 13 AUDIO
    TITLE "8:cjc113_2707"
    INDEX 01 00:12:48
  TRACK 14 AUDIO
    TITLE "0:"
    INDEX 01 00:13:73
  TRACK 15 AUDIO
    TITLE "9:cjc113_2708"
    INDEX 01 00:14:23
  TRACK 16 AUDIO
    TITLE "0:"
    INDEX 01 00:15:36
  TRACK 17 AUDIO
    TITLE "10:cjc113_2709"
    INDEX 01 00:15:58
  TRACK 18 AUDIO
    TITLE "0:"
    INDEX 01 00:19:09
  TRACK 19 AUDIO
    TITLE "8:cjc113_2710"
    INDEX 01 00:19:58
  TRACK 20 AUDIO
    TITLE "0:"
    INDEX 01 00:20:69
  TRACK 21 AUDIO
    TITLE "9:cjc113_2711"
    INDEX 01 00:21:19
  TRACK 22 AUDIO
    TITLE "0:"
    INDEX 01 00:22:32
  TRACK 23 AUDIO
    TITLE "10:cjc113_2712"
    INDEX 01 00:22:54
  TRACK 24 AUDIO
    TITLE "0:"
    INDEX 01 00:26:69
  TRACK 25 AUDIO
    TITLE "8:cjc113_2713"
    INDEX 01 00:27:41
  TRACK 26 AUDIO
    TITLE "0:"
    INDEX 01 00:28:64
  TRACK 27 AUDIO
    TITLE "9:cjc113_2714"
    INDEX 01 00:29:11
  TRACK 28 AUDIO
    TITLE "0:"
    INDEX 01 00:30:44
  TRACK 29 AUDIO
    TITLE "10:cjc113_2715"
    INDEX 01 00:30:65
  TRACK 30 AUDIO
    TITLE "0:"
    INDEX 01 00:33:62
  TRACK 31 AUDIO
    TITLE "8:cjc113_2716"
    INDEX 01 00:34:32
  TRACK 32 AUDIO
    TITLE "0:"
    INDEX 01 00:35:49
  TRACK 33 AUDIO
    TITLE "9:cjc113_2717"
    INDEX 01 00:35:74
  TRACK 34 AUDIO
    TITLE "0:"
    INDEX 01 00:37:34
  TRACK 35 AUDIO
    TITLE "10:cjc113_2718"
    INDEX 01 00:37:56
  TRACK 36 AUDIO
    TITLE "0:"
    INDEX 01 00:42:10
  TRACK 37 AUDIO
    TITLE "8:cjc113_2719"
    INDEX 01 00:42:57
  TRACK 38 AUDIO
    TITLE "0:"
    INDEX 01 00:43:68
  TRACK 39 AUDIO
    TITLE "9:cjc113_2720"
    INDEX 01 00:44:16
  TRACK 40 AUDIO
    TITLE "0:"
    INDEX 01 00:45:39
  TRACK 41 AUDIO
    TITLE "10:cjc113_2721"
    INDEX 01 00:45:63
  TRACK 42 AUDIO
    TITLE "0:"
    INDEX 01 00:49:02
  TRACK 43 AUDIO
    TITLE "8:cjc113_2722"
    INDEX 01 00:49:49
  TRACK 44 AUDIO
    TITLE "0:"
    INDEX 01 00:50:62
  TRACK 45 AUDIO
    TITLE "9:cjc113_2723"
    INDEX 01 00:51:09
  TRACK 46 AUDIO
    TITLE "0:"
    INDEX 01 00:52:14
  TRACK 47 AUDIO
    TITLE "10:cjc113_2724"
    INDEX 01 00:52:36
  TRACK 48 AUDIO
    TITLE "0:"
    INDEX 01 00:55:46
  TRACK 49 AUDIO
    TITLE "8:cjc113_2725"
    INDEX 01 00:56:20
  TRACK 50 AUDIO
    TITLE "0:"
    INDEX 01 00:57:27
  TRACK 51 AUDIO
    TITLE "9:cjc113_2726"
    INDEX 01 00:57:50
  TRACK 52 AUDIO
    TITLE "0:"
    INDEX 01 00:59:04
  TRACK 53 AUDIO
    TITLE "10:cjc113_2727"
    INDEX 01 00:59:26
  TRACK 54 AUDIO
    TITLE "0:"
    INDEX 01 01:02:24
  TRACK 55 AUDIO
    TITLE "8:cjc113_2728"
    INDEX 01 01:02:71
  TRACK 56 AUDIO
    TITLE "0:"
    INDEX 01 01:04:21
  TRACK 57 AUDIO
    TITLE "9:cjc113_2729"
    INDEX 01 01:04:45
  TRACK 58 AUDIO
    TITLE "0:"
    INDEX 01 01:05:54
  TRACK 59 AUDIO
    TITLE "10:cjc113_2730"
    INDEX 01 01:06:00
  TRACK 60 AUDIO
    TITLE "0:"
    INDEX 01 01:09:57
  TRACK 61 AUDIO
    TITLE "8:cjc113_2731"
    INDEX 01 01:10:30
  TRACK 62 AUDIO
    TITLE "0:"
    INDEX 01 01:11:41
  TRACK 63 AUDIO
    TITLE "9:cjc113_2732"
    INDEX 01 01:11:66
  TRACK 64 AUDIO
    TITLE "0:"
    INDEX 01 01:13:18
  TRACK 65 AUDIO
    TITLE "10:cjc113_2733"
    INDEX 01 01:13:42
  TRACK 66 AUDIO
    TITLE "0:"
    INDEX 01 01:17:53
  TRACK 67 AUDIO
    TITLE "8:cjc113_2734"
    INDEX 01 01:18:27
  TRACK 68 AUDIO
    TITLE "0:"
    INDEX 01 01:19:27
  TRACK 69 AUDIO
    TITLE "9:cjc113_2735"
    INDEX 01 01:19:48
  TRACK 70 AUDIO
    TITLE "0:"
    INDEX 01 01:20:73
  TRACK 71 AUDIO
    TITLE "10:cjc113_2736"
    INDEX 01 01:21:21
  TRACK 72 AUDIO
    TITLE "0:"
    INDEX 01 01:24:45
